<mxfile host="app.diagrams.net" modified="2024-05-10T07:14:48.140Z" agent="Mozilla/5.0 (Windows NT 10.0; Win64; x64) AppleWebKit/537.36 (KHTML, like Gecko) Chrome/124.0.0.0 Safari/537.36" etag="-EzoUNWVZjWKTOm-9XDD" version="24.3.1" type="device">
  <diagram name="Page-1" id="SFxRgslEcCJEeC-qZN8D">
    <mxGraphModel dx="1434" dy="772" grid="1" gridSize="10" guides="1" tooltips="1" connect="1" arrows="1" fold="1" page="1" pageScale="1" pageWidth="850" pageHeight="1100" math="0" shadow="0">
      <root>
        <mxCell id="0" />
        <mxCell id="1" parent="0" />
        <mxCell id="rp_QwCWjtoXOlQtk78-i-6" style="edgeStyle=orthogonalEdgeStyle;rounded=0;orthogonalLoop=1;jettySize=auto;html=1;exitX=1;exitY=0.5;exitDx=0;exitDy=0;" edge="1" parent="1" source="rp_QwCWjtoXOlQtk78-i-1" target="rp_QwCWjtoXOlQtk78-i-5">
          <mxGeometry relative="1" as="geometry" />
        </mxCell>
        <mxCell id="rp_QwCWjtoXOlQtk78-i-21" value="No" style="edgeLabel;html=1;align=center;verticalAlign=middle;resizable=0;points=[];" vertex="1" connectable="0" parent="rp_QwCWjtoXOlQtk78-i-6">
          <mxGeometry x="-0.125" y="-2" relative="1" as="geometry">
            <mxPoint as="offset" />
          </mxGeometry>
        </mxCell>
        <mxCell id="rp_QwCWjtoXOlQtk78-i-7" style="edgeStyle=orthogonalEdgeStyle;rounded=0;orthogonalLoop=1;jettySize=auto;html=1;entryX=0.5;entryY=0;entryDx=0;entryDy=0;" edge="1" parent="1" source="rp_QwCWjtoXOlQtk78-i-1" target="rp_QwCWjtoXOlQtk78-i-4">
          <mxGeometry relative="1" as="geometry" />
        </mxCell>
        <mxCell id="rp_QwCWjtoXOlQtk78-i-22" value="Yes" style="edgeLabel;html=1;align=center;verticalAlign=middle;resizable=0;points=[];" vertex="1" connectable="0" parent="rp_QwCWjtoXOlQtk78-i-7">
          <mxGeometry x="-0.15" relative="1" as="geometry">
            <mxPoint as="offset" />
          </mxGeometry>
        </mxCell>
        <mxCell id="rp_QwCWjtoXOlQtk78-i-1" value="If Text File Available ?" style="rhombus;whiteSpace=wrap;html=1;" vertex="1" parent="1">
          <mxGeometry x="300" y="140" width="140" height="140" as="geometry" />
        </mxCell>
        <mxCell id="rp_QwCWjtoXOlQtk78-i-3" style="edgeStyle=orthogonalEdgeStyle;rounded=0;orthogonalLoop=1;jettySize=auto;html=1;entryX=0.5;entryY=0;entryDx=0;entryDy=0;" edge="1" parent="1" source="rp_QwCWjtoXOlQtk78-i-2" target="rp_QwCWjtoXOlQtk78-i-1">
          <mxGeometry relative="1" as="geometry" />
        </mxCell>
        <mxCell id="rp_QwCWjtoXOlQtk78-i-2" value="Text File" style="rounded=0;whiteSpace=wrap;html=1;" vertex="1" parent="1">
          <mxGeometry x="310" y="30" width="120" height="60" as="geometry" />
        </mxCell>
        <mxCell id="rp_QwCWjtoXOlQtk78-i-10" style="edgeStyle=orthogonalEdgeStyle;rounded=0;orthogonalLoop=1;jettySize=auto;html=1;exitX=0.5;exitY=1;exitDx=0;exitDy=0;entryX=0.5;entryY=0;entryDx=0;entryDy=0;" edge="1" parent="1" source="rp_QwCWjtoXOlQtk78-i-4" target="rp_QwCWjtoXOlQtk78-i-9">
          <mxGeometry relative="1" as="geometry" />
        </mxCell>
        <mxCell id="rp_QwCWjtoXOlQtk78-i-4" value="Read Text File" style="rounded=0;whiteSpace=wrap;html=1;" vertex="1" parent="1">
          <mxGeometry x="310" y="320" width="120" height="60" as="geometry" />
        </mxCell>
        <mxCell id="rp_QwCWjtoXOlQtk78-i-5" value="Exception : Text File Not Available !" style="rounded=0;whiteSpace=wrap;html=1;" vertex="1" parent="1">
          <mxGeometry x="520" y="180" width="120" height="60" as="geometry" />
        </mxCell>
        <mxCell id="rp_QwCWjtoXOlQtk78-i-12" style="edgeStyle=orthogonalEdgeStyle;rounded=0;orthogonalLoop=1;jettySize=auto;html=1;exitX=1;exitY=0.5;exitDx=0;exitDy=0;entryX=0;entryY=0.5;entryDx=0;entryDy=0;" edge="1" parent="1" source="rp_QwCWjtoXOlQtk78-i-9" target="rp_QwCWjtoXOlQtk78-i-11">
          <mxGeometry relative="1" as="geometry" />
        </mxCell>
        <mxCell id="rp_QwCWjtoXOlQtk78-i-19" value="Yes" style="edgeLabel;html=1;align=center;verticalAlign=middle;resizable=0;points=[];" vertex="1" connectable="0" parent="rp_QwCWjtoXOlQtk78-i-12">
          <mxGeometry x="-0.3263" y="-3" relative="1" as="geometry">
            <mxPoint as="offset" />
          </mxGeometry>
        </mxCell>
        <mxCell id="rp_QwCWjtoXOlQtk78-i-14" style="edgeStyle=orthogonalEdgeStyle;rounded=0;orthogonalLoop=1;jettySize=auto;html=1;exitX=0.5;exitY=1;exitDx=0;exitDy=0;entryX=0.5;entryY=0;entryDx=0;entryDy=0;" edge="1" parent="1" source="rp_QwCWjtoXOlQtk78-i-9" target="rp_QwCWjtoXOlQtk78-i-13">
          <mxGeometry relative="1" as="geometry" />
        </mxCell>
        <mxCell id="rp_QwCWjtoXOlQtk78-i-20" value="No" style="edgeLabel;html=1;align=center;verticalAlign=middle;resizable=0;points=[];" vertex="1" connectable="0" parent="rp_QwCWjtoXOlQtk78-i-14">
          <mxGeometry x="-0.5" relative="1" as="geometry">
            <mxPoint as="offset" />
          </mxGeometry>
        </mxCell>
        <mxCell id="rp_QwCWjtoXOlQtk78-i-9" value="If Read Text Empty Or Null ?" style="rhombus;whiteSpace=wrap;html=1;" vertex="1" parent="1">
          <mxGeometry x="315" y="410" width="110" height="120" as="geometry" />
        </mxCell>
        <mxCell id="rp_QwCWjtoXOlQtk78-i-11" value="Exception : Text File Data Not Available For the Processing" style="rounded=0;whiteSpace=wrap;html=1;" vertex="1" parent="1">
          <mxGeometry x="520" y="440" width="120" height="60" as="geometry" />
        </mxCell>
        <mxCell id="rp_QwCWjtoXOlQtk78-i-16" value="" style="edgeStyle=orthogonalEdgeStyle;rounded=0;orthogonalLoop=1;jettySize=auto;html=1;" edge="1" parent="1" source="rp_QwCWjtoXOlQtk78-i-13" target="rp_QwCWjtoXOlQtk78-i-15">
          <mxGeometry relative="1" as="geometry" />
        </mxCell>
        <mxCell id="rp_QwCWjtoXOlQtk78-i-13" value="Grouping Text File String using &quot;Message Text&quot; keyword" style="rounded=0;whiteSpace=wrap;html=1;" vertex="1" parent="1">
          <mxGeometry x="310" y="570" width="120" height="60" as="geometry" />
        </mxCell>
        <mxCell id="rp_QwCWjtoXOlQtk78-i-18" style="edgeStyle=orthogonalEdgeStyle;rounded=0;orthogonalLoop=1;jettySize=auto;html=1;exitX=1;exitY=0.5;exitDx=0;exitDy=0;entryX=0;entryY=0.75;entryDx=0;entryDy=0;" edge="1" parent="1" source="rp_QwCWjtoXOlQtk78-i-15" target="rp_QwCWjtoXOlQtk78-i-17">
          <mxGeometry relative="1" as="geometry" />
        </mxCell>
        <mxCell id="rp_QwCWjtoXOlQtk78-i-26" value="No" style="edgeLabel;html=1;align=center;verticalAlign=middle;resizable=0;points=[];" vertex="1" connectable="0" parent="rp_QwCWjtoXOlQtk78-i-18">
          <mxGeometry x="-0.15" y="-2" relative="1" as="geometry">
            <mxPoint as="offset" />
          </mxGeometry>
        </mxCell>
        <mxCell id="rp_QwCWjtoXOlQtk78-i-24" style="edgeStyle=orthogonalEdgeStyle;rounded=0;orthogonalLoop=1;jettySize=auto;html=1;exitX=0.5;exitY=1;exitDx=0;exitDy=0;" edge="1" parent="1" source="rp_QwCWjtoXOlQtk78-i-15" target="rp_QwCWjtoXOlQtk78-i-23">
          <mxGeometry relative="1" as="geometry" />
        </mxCell>
        <mxCell id="rp_QwCWjtoXOlQtk78-i-25" value="Yes" style="edgeLabel;html=1;align=center;verticalAlign=middle;resizable=0;points=[];" vertex="1" connectable="0" parent="rp_QwCWjtoXOlQtk78-i-24">
          <mxGeometry x="-0.08" y="4" relative="1" as="geometry">
            <mxPoint as="offset" />
          </mxGeometry>
        </mxCell>
        <mxCell id="rp_QwCWjtoXOlQtk78-i-15" value="If Check the Any Group of Data Set Available or Not ?&lt;div&gt;group.length &amp;gt; 0&lt;/div&gt;" style="rhombus;whiteSpace=wrap;html=1;" vertex="1" parent="1">
          <mxGeometry x="295" y="670" width="150" height="140" as="geometry" />
        </mxCell>
        <mxCell id="rp_QwCWjtoXOlQtk78-i-17" value="Exception : There is Not &quot;Message Text&quot; Data in the Text File" style="rounded=0;whiteSpace=wrap;html=1;" vertex="1" parent="1">
          <mxGeometry x="535" y="700" width="120" height="60" as="geometry" />
        </mxCell>
        <mxCell id="rp_QwCWjtoXOlQtk78-i-28" style="edgeStyle=orthogonalEdgeStyle;rounded=0;orthogonalLoop=1;jettySize=auto;html=1;entryX=0.5;entryY=0;entryDx=0;entryDy=0;" edge="1" parent="1" source="rp_QwCWjtoXOlQtk78-i-23" target="rp_QwCWjtoXOlQtk78-i-27">
          <mxGeometry relative="1" as="geometry" />
        </mxCell>
        <mxCell id="rp_QwCWjtoXOlQtk78-i-23" value="Extract&amp;nbsp;&lt;div&gt;1.Transaction Reference Number&lt;/div&gt;&lt;div&gt;2.Account Identification&lt;/div&gt;&lt;div&gt;3.Statement Number/Sequence Number&lt;/div&gt;" style="rounded=0;whiteSpace=wrap;html=1;" vertex="1" parent="1">
          <mxGeometry x="200" y="860" width="340" height="90" as="geometry" />
        </mxCell>
        <mxCell id="rp_QwCWjtoXOlQtk78-i-30" style="edgeStyle=orthogonalEdgeStyle;rounded=0;orthogonalLoop=1;jettySize=auto;html=1;" edge="1" parent="1" source="rp_QwCWjtoXOlQtk78-i-27" target="rp_QwCWjtoXOlQtk78-i-29">
          <mxGeometry relative="1" as="geometry" />
        </mxCell>
        <mxCell id="rp_QwCWjtoXOlQtk78-i-27" value="Identify the Line Data" style="rounded=0;whiteSpace=wrap;html=1;" vertex="1" parent="1">
          <mxGeometry x="200" y="1000" width="340" height="60" as="geometry" />
        </mxCell>
        <mxCell id="rp_QwCWjtoXOlQtk78-i-32" style="edgeStyle=orthogonalEdgeStyle;rounded=0;orthogonalLoop=1;jettySize=auto;html=1;" edge="1" parent="1" source="rp_QwCWjtoXOlQtk78-i-29" target="rp_QwCWjtoXOlQtk78-i-31">
          <mxGeometry relative="1" as="geometry" />
        </mxCell>
        <mxCell id="rp_QwCWjtoXOlQtk78-i-29" value="Convert Line Data Into Tabular Format by Using Separator&lt;div&gt;(Tab, Pipe, Coma)&lt;/div&gt;" style="rounded=0;whiteSpace=wrap;html=1;" vertex="1" parent="1">
          <mxGeometry x="205" y="1110" width="330" height="60" as="geometry" />
        </mxCell>
        <mxCell id="rp_QwCWjtoXOlQtk78-i-34" style="edgeStyle=orthogonalEdgeStyle;rounded=0;orthogonalLoop=1;jettySize=auto;html=1;" edge="1" parent="1" source="rp_QwCWjtoXOlQtk78-i-31" target="rp_QwCWjtoXOlQtk78-i-33">
          <mxGeometry relative="1" as="geometry" />
        </mxCell>
        <mxCell id="rp_QwCWjtoXOlQtk78-i-37" value="No" style="edgeLabel;html=1;align=center;verticalAlign=middle;resizable=0;points=[];" vertex="1" connectable="0" parent="rp_QwCWjtoXOlQtk78-i-34">
          <mxGeometry x="0.0909" y="1" relative="1" as="geometry">
            <mxPoint as="offset" />
          </mxGeometry>
        </mxCell>
        <mxCell id="rp_QwCWjtoXOlQtk78-i-36" style="edgeStyle=orthogonalEdgeStyle;rounded=0;orthogonalLoop=1;jettySize=auto;html=1;entryX=0.5;entryY=0;entryDx=0;entryDy=0;" edge="1" parent="1" source="rp_QwCWjtoXOlQtk78-i-31" target="rp_QwCWjtoXOlQtk78-i-35">
          <mxGeometry relative="1" as="geometry" />
        </mxCell>
        <mxCell id="rp_QwCWjtoXOlQtk78-i-38" value="Yes" style="edgeLabel;html=1;align=center;verticalAlign=middle;resizable=0;points=[];" vertex="1" connectable="0" parent="rp_QwCWjtoXOlQtk78-i-36">
          <mxGeometry x="-0.4667" y="-4" relative="1" as="geometry">
            <mxPoint as="offset" />
          </mxGeometry>
        </mxCell>
        <mxCell id="rp_QwCWjtoXOlQtk78-i-31" value="If Line Data Not Available" style="rhombus;whiteSpace=wrap;html=1;" vertex="1" parent="1">
          <mxGeometry x="315" y="1230" width="110" height="110" as="geometry" />
        </mxCell>
        <mxCell id="rp_QwCWjtoXOlQtk78-i-33" value="Exception : There is No Line Data for Respective &quot;Message Text&quot;&amp;nbsp;" style="rounded=0;whiteSpace=wrap;html=1;" vertex="1" parent="1">
          <mxGeometry x="480" y="1255" width="160" height="60" as="geometry" />
        </mxCell>
        <mxCell id="rp_QwCWjtoXOlQtk78-i-35" value="Write Individual &quot;Message Text&quot; Data into Separate File" style="rounded=0;whiteSpace=wrap;html=1;" vertex="1" parent="1">
          <mxGeometry x="310" y="1400" width="120" height="60" as="geometry" />
        </mxCell>
      </root>
    </mxGraphModel>
  </diagram>
</mxfile>
